<?xml version="1.0" encoding="utf-8"?>
<!-- Generator: Adobe Illustrator 17.1.0, SVG Export Plug-In . SVG Version: 6.00 Build 0)  -->
<!DOCTYPE svg PUBLIC "-//W3C//DTD SVG 1.1//EN" "http://www.w3.org/Graphics/SVG/1.1/DTD/svg11.dtd">
<svg version="1.1" xmlns="http://www.w3.org/2000/svg" xmlns:xlink="http://www.w3.org/1999/xlink" x="0px" y="0px"
	 viewBox="0 0 640 1136" style="enable-background:new 0 0 640 1136;" xml:space="preserve">
<style type="text/css">
	.st0{display:none;}
	.st1{display:inline;fill:#1D1E21;}
	.st2{display:none;fill:#424242;}
	.st3{display:none;fill:#777777;}
	.st4{display:none;fill:#636363;}
	.st5{display:none;fill:#8E8D8A;}
	.st6{display:none;fill:#F1F1F2;}
	.st7{display:none;opacity:0.2;fill:#C1BFBC;}
	.st8{display:none;fill:#231F20;stroke:#231F20;stroke-width:1.224;stroke-miterlimit:10;}
	.st9{display:none;fill:#F54340;}
	.st10{display:none;fill:#FB9E4B;}
	.st11{display:none;fill:#35C559;}
	.st12{display:none;fill:#3F3CB1;}
	.st13{display:none;fill:#FFDD15;}
	.st14{display:none;fill:#48B7EC;}
	.st15{display:none;opacity:0.6;}
	.st16{display:inline;fill:#F1F1F2;}
	.st17{fill:#F1F1F2;}
	.st18{display:inline;}
	.st19{display:inline;fill:none;}
	.st20{font-family:'DINPro-Bold';}
	.st21{font-size:32.5402;}
	.st22{letter-spacing:11;}
	.st23{fill:none;}
</style>
<g id="Layer_2" class="st0">
	<rect x="0" y="0" class="st1" width="640" height="1136"/>
</g>
<g id="Layer_24">
	<path class="st2" d="M228.8,385c0,0,64.6-26.7,37.1,53.7c0,0,12.9,10.1,26,13.1c0,0,11.7-27.9,27.8-28.8v-93
		c-27.3-0.3-58.8,3.1-90.9,14.5C228.8,344.5,223.8,372.2,228.8,385z"/>
	<path class="st3" d="M319.7,241.5c-68.6,0-124.3,55.6-124.3,124.3c0,68.7,55.6,124.3,124.3,124.3c68.7,0,124.3-55.6,124.3-124.3
		C444,297.1,388.3,241.5,319.7,241.5z M319.7,456c-49.8,0-90.2-40.4-90.2-90.2s40.4-90.2,90.2-90.2s90.2,40.4,90.2,90.2
		S369.5,456,319.7,456z"/>
	<path class="st4" d="M409.9,385c0,0-64.6-26.7-37.1,53.7c0,0-12.9,10.1-26,13.1c0,0-11.7-27.9-27.8-28.8v-93
		c27.3-0.3,58.8,3.1,90.9,14.5C409.9,344.5,414.9,372.2,409.9,385z"/>
	<path class="st5" d="M444,365.8c0,68.7-55.6,124.3-124.3,124.3c-0.2,0-0.5,0-0.7,0V456c0.2,0,0.5,0,0.7,0
		c49.8,0,90.2-40.4,90.2-90.2s-40.4-90.2-90.2-90.2c-0.2,0-0.5,0-0.7,0v-34.1c0.2,0,0.5,0,0.7,0C388.3,241.5,444,297.1,444,365.8z"
		/>
	<path class="st6" d="M374.9,370.4c1.7,33.2-25.6,60.5-58.8,58.8c-28.4-1.4-51.5-24.6-53-53c-1.7-33.2,25.6-60.5,58.8-58.8
		C350.3,318.8,373.4,342,374.9,370.4z"/>
	<path class="st7" d="M319,317.3v111.9c-1,0-1.9,0-2.9-0.1c-28.4-1.4-51.5-24.6-53-53C261.4,344,287.1,317.3,319,317.3z"/>
	<path class="st8" d="M346.1,343.6l-9.1,7.7h-16.2v41.2c0,6.5-7.2,10.5-14.2,10.5c-3.7,0-6.6-1.1-7.9-3.1c-0.7-1-1.3-2.8-0.3-5.4
		c2.5-6.2,8.3-7.5,12.8-7.5c2.4,0,4.4,0.4,5.6,0.6v-43.9H346.1z"/>
	
		<ellipse transform="matrix(0.7969 0.6041 -0.6041 0.7969 222.3927 -76.4028)" class="st9" cx="224.8" cy="292.6" rx="13.7" ry="25.2"/>
	
		<ellipse transform="matrix(0.9998 -1.938531e-02 1.938531e-02 0.9998 -7.1275 3.9324)" class="st10" cx="199.3" cy="369.6" rx="13.7" ry="25.2"/>
	
		<ellipse transform="matrix(0.9998 -1.938531e-02 1.938531e-02 0.9998 -7.0821 8.6149)" class="st11" cx="440.8" cy="369.6" rx="13.7" ry="25.2"/>
	
		<ellipse transform="matrix(0.7969 -0.6041 0.6041 0.7969 -221.1841 225.5233)" class="st12" cx="224.8" cy="441.7" rx="13.7" ry="25.2"/>
	
		<ellipse transform="matrix(-0.7969 0.6041 -0.6041 -0.7969 920.3582 273.7611)" class="st13" cx="414.2" cy="291.6" rx="13.7" ry="25.2"/>
	
		<ellipse transform="matrix(-0.7969 -0.6041 0.6041 -0.7969 477.969 1042.1783)" class="st14" cx="414.2" cy="440.7" rx="13.7" ry="25.2"/>
	<g class="st15">
		<path class="st16" d="M486.7,294.9l-0.9,0.2c-3.3,0.6-6.4-1.4-7.2-4.6c-6.6-26.1-24.5-48.2-48.6-60c-3-1.4-4.3-4.9-3.1-8l0.3-0.8
			c1.4-3.5,5.3-5,8.7-3.3c27.5,13.5,48.4,39.3,55.9,68.9C492.7,290.7,490.4,294.2,486.7,294.9z"/>
	</g>
	<g class="st0">
		<path class="st16" d="M455.4,300l-0.1,0c-2.6,0.4-5.1-1.2-5.8-3.7c-4.6-16.6-16-30.7-31.3-38.6c-2.3-1.2-3.3-4-2.4-6.4l0-0.1
			c1.1-2.9,4.5-4.2,7.2-2.8c17.9,9.3,31.2,25.7,36.5,45.1C460.4,296.5,458.4,299.5,455.4,300z"/>
	</g>
	<g class="st15">
		<path class="st16" d="M153.3,294.9l0.9,0.2c3.3,0.6,6.4-1.4,7.2-4.6c6.6-26.1,24.5-48.2,48.6-60c3-1.4,4.3-4.9,3.1-8l-0.3-0.8
			c-1.4-3.5-5.3-5-8.7-3.3c-27.5,13.5-48.4,39.3-55.9,68.9C147.3,290.7,149.6,294.2,153.3,294.9z"/>
	</g>
	<g class="st0">
		<path class="st16" d="M184.6,300l0.1,0c2.6,0.4,5.1-1.2,5.8-3.7c4.6-16.6,16-30.7,31.3-38.6c2.3-1.2,3.3-4,2.4-6.4l0-0.1
			c-1.1-2.9-4.5-4.2-7.2-2.8c-17.9,9.3-31.2,25.7-36.5,45.1C179.6,296.5,181.6,299.5,184.6,300z"/>
	</g>
	<g class="st15">
		<path class="st16" d="M486.7,436.7l-0.9-0.2c-3.3-0.6-6.4,1.4-7.2,4.6c-6.6,26.1-24.5,48.2-48.6,60c-3,1.4-4.3,4.9-3.1,8l0.3,0.8
			c1.4,3.5,5.3,5,8.7,3.3c27.5-13.5,48.4-39.3,55.9-68.9C492.7,440.9,490.4,437.4,486.7,436.7z"/>
	</g>
	<g>
		<path class="st17" d="M455.4,431.6l-0.1,0c-2.6-0.4-5.1,1.2-5.8,3.7c-4.6,16.6-16,30.7-31.3,38.6c-2.3,1.2-3.3,4-2.4,6.4l0,0.1
			c1.1,2.9,4.5,4.2,7.2,2.8c17.9-9.3,31.2-25.7,36.5-45.1C460.4,435.1,458.4,432,455.4,431.6z"/>
	</g>
	<g class="st15">
		<path class="st16" d="M153.3,436.7l0.9-0.2c3.3-0.6,6.4,1.4,7.2,4.6c6.6,26.1,24.5,48.2,48.6,60c3,1.4,4.3,4.9,3.1,8l-0.3,0.8
			c-1.4,3.5-5.3,5-8.7,3.3c-27.5-13.5-48.4-39.3-55.9-68.9C147.3,440.9,149.6,437.4,153.3,436.7z"/>
	</g>
	<g class="st0">
		<path class="st16" d="M184.6,431.6l0.1,0c2.6-0.4,5.1,1.2,5.8,3.7c4.6,16.6,16,30.7,31.3,38.6c2.3,1.2,3.3,4,2.4,6.4l0,0.1
			c-1.1,2.9-4.5,4.2-7.2,2.8c-17.9-9.3-31.2-25.7-36.5-45.1C179.6,435.1,181.6,432,184.6,431.6z"/>
	</g>
</g>
<g id="Layer_3" class="st0">
	<g id="Layer_5">
		<g class="st18">
			<path class="st17" d="M225.5,588.6c-3.8-2.7-8.2-3.3-13.1-3.7c-2.8-0.2-5.3-0.3-7.9-0.4c-2.4-0.1-4.8-0.1-7.6-0.3
				c-1.2-0.1-2.4-0.4-3.5-0.9c-0.8-0.4-1.4-1.2-1.6-1.9c-0.1-0.7,0.2-1.3,0.8-1.9c1.3-1.2,3.4-1.8,6.4-1.8c1.1,0,2.1,0.1,3.1,0.1
				c3.2,0.2,6.3,0.6,9.4,0.9c0.9,0.1,1.9,0.2,2.8,0.3c0.4,0,0.9,0.1,1.3,0.2c1.4,0.2,2.8,0.3,4.2,0.3c2.6,0,4.6-0.7,6-2.1
				c2.1-2,2.1-5.3,0.1-7.6c-1-1.1-3.6-2.5-6.2-2.9c-3.9-0.6-8.8-0.9-14.6-1l-0.5,0c-1.9,0-3.7-0.1-5.5-0.1c-4.5,0-9.5,0.2-15.3,1.8
				c-5.6,1.6-9.6,4.4-11.5,8.3c-1.1,2.3-1.4,4.8-0.9,7.1c0.5,2,1.3,3.8,2.5,5.3c4.5,5.8,12.3,6,19.8,6.2c1.2,0,2.5,0.1,3.6,0.1
				c0.7,0,1.6,0,2.7,0c0.7,0,1.4,0,2.1,0c3.9,0,8.8,0.2,9.1,2.7c0.1,0.6,0.1,2.7-3.8,3.5c-2.4,0.5-5.5,0.7-8.4,0.7
				c-5.8,0-11.5-0.8-17.2-1.6c-2.2-0.3-4.4-0.6-6.7-0.6c-1.6,0-3.1,0.2-4.5,0.5c-3.1,0.8-6.1,2.5-8.4,5.7c-1,1.4-1.3,2.7-0.8,3.9
				c0.8,1.9,3.7,3.3,8.2,4c7.8,1.2,15.7,1.6,24.8,1.7c2.4,0,18.4-0.1,24.1-2c7.1-2.4,11.1-6.2,12.2-11.7
				C232.1,596.1,230.4,592.1,225.5,588.6z"/>
			<path class="st17" d="M353.5,592.7c-1.8-11.3-4-18.6-11.6-23.6c-8.6-5.6-21.6-5-30.1,1.6c-9,6.8-10.5,23-9.7,34.8
				c0.3,4.8,3.6,7.9,7.5,7c4.2-0.9,4.5-7.5,7.1-10.1c3.2-3.3,8.5-3.3,12.9-3.2c4.2,0.1,8.1,0.3,10.9,3.6c2.8,3.2,3.4,10.2,8.8,9.9
				C356.6,612.2,354.2,597.5,353.5,592.7z M338.4,584.3c0.4,1.5-0.1,2.6-1.4,3.3c-0.9,0.4-2.7,0.6-4.2,0.7c-1.8,0.1-3.7,0-5.5,0
				c-1.9,0-5.2,0-7.1,0c-2.5,0-3.1-1.5-3.1-2.9c0-1.5,1.3-3.6,3.2-4.8c3-1.9,6.8-2.3,9.1-2.1C332.4,578.8,337.3,580.4,338.4,584.3z"
				/>
			<path class="st17" d="M415.9,599.5c0-1.7,0-5.1-0.3-9.2c-0.3-3.9-0.9-8.5-1.1-12.2c-0.1-2.1-0.5-4.6,0.1-6.6
				c1.4-4.7,9.5-5,12.2-1.6c0.5,0.6,1,1.4,1.2,2.2c0.5,1.4,0.6,3,1,4.5c0.3,1.2,0.4,2.5,0.9,3.5c1.1,2.4,3.3,4,5.6,2.8
				c1.1-0.6,2.1-1.4,2.9-2.2c4-3.8,6.7-6.8,10.9-11.4c2.6-2.8,5.9-6.4,8.9-8.9c3.9-3.3,9.1-3.6,14-3.1c1.7,0.2,3.6,0.2,4.9,1.4
				c1.2,1,1.8,2.6,1.1,4.1c-0.5,1-1.2,2-2,2.7c-3.3,3.1-6.7,6.1-10.1,9.2c-4.5,4.3-8.4,7.6-12.9,12c-0.9,0.8-2.6,2.8-3.2,3.8
				c-0.9,1.7-1.1,3-0.1,4.6c1.1,1.7,3.1,4,4.4,5.6c1.9,2.2,3.9,4.3,5.8,6.5c0.5,0.5,0.8,1.2,1.1,1.8c1.6,3.7-0.4,6.8-4.4,7.2
				c-4.1,0.4-7.5-0.6-10.3-3.8c-1.9-2.1-3.7-4.2-5.7-6.2c-1.4-1.5-2.9-3-4.6-4.2c-2.6-1.8-5-1.1-6.2,2c-0.6,1.4-0.7,3-1.2,4.4
				c-1,3.1-3.6,4.9-6.4,4.6c-2-0.2-4.3-0.8-5.6-2.5C415.1,608,415.9,604.5,415.9,599.5z"/>
			<path class="st17" d="M237.4,591c0-4.4,0-8.8,0-13.2c0-1.4,0.2-2.8,0.5-4.2c1.3-5.9,5.6-8,10.8-5.5c2.5,1.3,4.3,3.4,6,5.6
				c2,2.7,3.8,5.5,5.8,8.2c1.1,1.5,2.2,2.9,3.5,4.2c1.4,1.4,3.1,2.1,5,1.3c3-1.2,5.1-5.4,6.9-8c2.8-4.2,6.3-10.9,11.9-11.4
				c2-0.2,4,0.5,5.3,2.1c1.5,1.8,1.7,4.1,1.9,6.4c0.3,3.9,0.3,11.6,0.3,15.2c0,6.6,0.2,8.9,0.1,15.1c0,2.6-1.7,4.9-3.7,5.5
				c-2,0.7-4.7-0.3-5.9-2.5c-0.9-1.5-1.3-3.4-1.7-5.2c-0.4-1.5-0.4-3-0.8-4.5c-0.6-2.2-2.3-2.9-4.1-1.8c-0.9,0.6-1.7,1.5-2.5,2.4
				c-1.7,2.1-3.2,4.3-5,6.3c-3.5,3.9-7.7,2.9-10.3-0.8c-1.2-1.8-2.4-3.7-3.6-5.5c-1.2-1.9-2.3-4.1-4.2-5.4c-1.9-1.3-3.8-0.6-4.5,1.6
				c-0.5,1.5-0.6,3.2-0.8,4.8c-0.2,2.8,0.2,5.9-1,8.6c-0.9,2-3.2,4-5.6,3.6c-2.3-0.4-4.1-2.6-4.2-5.4c-0.1-4.6,0-9.2,0-13.8
				C237.4,593.4,237.4,592.2,237.4,591z"/>
			<path class="st17" d="M392.7,613.2c-2.5,0.2-5,0.2-7.5,0c-3.8-0.4-7.6-1.1-11.2-2.3c-4.6-1.6-9.4-4.3-11.9-8.5
				c-0.7-1.2-1.3-2.4-1.7-3.6c-1.7-4.8-2-10.1-1.1-15.1c0.4-2.6,1.4-5.1,2.9-7.3c3.8-5.3,10.3-7.8,16.6-8.8c5-0.9,10-0.8,15-0.6
				c2.6,0.1,5.1,0.4,7.6,1c2.3,0.5,4.9,1.2,6.8,2.7c0.8,0.7,1.4,1.5,1.7,2.5c0.5,1.7,0.1,3.7-1,5.1c-2.3,3.2-6,3.2-10.9,1.6
				c-4.9-1.6-8.5-2.6-13.5-2.1c-2.7,0.3-7.5,1.5-10.1,5.4c-1.1,1.7-1.7,4.2-1.8,6.2c-0.3,4.4,2.4,8.7,6.7,10
				c1.5,0.5,3.2,0.7,4.8,0.9c2.9,0.3,5.9,0.2,8.9-0.3c2.6-0.5,5.2-1.4,7.8-1.9c2.7-0.5,6.4,0.4,7.9,2.9c1.2,1.9,1.3,4.4,0.1,6.3
				c-1.3,2.1-4.3,3.7-6.6,4.3C399,612.4,395.9,613,392.7,613.2z"/>
		</g>
	</g>
	<g id="Layer_4">
		<rect x="82.2" y="636.3" class="st19" width="475.5" height="40.4"/>
		<text transform="matrix(1 0 0 1 263.5916 659.4503)" class="st16 st20 st21 st22">ritw</text>
		<g class="st18">
			<rect x="82.2" y="636.3" class="st23" width="475.5" height="40.4"/>
			<path class="st17" d="M278.6,659.5l-4.5-9.2h-3.3v9.2h-4.5v-23.2h9.1c4.7,0,7.5,3.2,7.5,7.1c0,3.3-2,5.3-4.2,6.1l5.2,10H278.6z
				 M275.1,640.3h-4.3v6.1h4.3c2,0,3.3-1.3,3.3-3.1S277.1,640.3,275.1,640.3z"/>
			<path class="st17" d="M299,659.5v-23.2h4.5v23.2H299z"/>
			<path class="st17" d="M329.1,640.3v19.1h-4.5v-19.1h-6.1v-4h16.6v4H329.1z"/>
			<path class="st17" d="M370,659.5h-3.8l-4.3-14.1l-4.3,14.1h-3.8l-6.2-23.2h4.7l3.6,14.6l4.2-14.6h3.4l4.2,14.6l3.6-14.6h4.7
				L370,659.5z"/>
		</g>
	</g>
</g>
</svg>
